<?xml version="1.0" encoding="UTF-8" standalone="no"?>
<!-- Created with Inkscape (http://www.inkscape.org/) -->

<svg
   version="1.1"
   width="127mm"
   height="127mm"
   id="svg2"
   inkscape:version="1.1.2 (0a00cf5339, 2022-02-04)"
   sodipodi:docname="windsorrockerroundel.svg"
   inkscape:export-filename="/home/roland/Documents/2024/2024-08-Aug/WindsorRockerRoundel.jpg"
   inkscape:export-xdpi="299.98087"
   inkscape:export-ydpi="299.98087"
   viewBox="0 0 450 450"
   xmlns:inkscape="http://www.inkscape.org/namespaces/inkscape"
   xmlns:sodipodi="http://sodipodi.sourceforge.net/DTD/sodipodi-0.dtd"
   xmlns:xlink="http://www.w3.org/1999/xlink"
   xmlns="http://www.w3.org/2000/svg"
   xmlns:svg="http://www.w3.org/2000/svg"
   xmlns:rdf="http://www.w3.org/1999/02/22-rdf-syntax-ns#"
   xmlns:cc="http://creativecommons.org/ns#"
   xmlns:dc="http://purl.org/dc/elements/1.1/">
  <sodipodi:namedview
     pagecolor="#ffffff"
     bordercolor="#666666"
     borderopacity="1"
     objecttolerance="10"
     gridtolerance="10"
     guidetolerance="10"
     inkscape:pageopacity="1"
     inkscape:pageshadow="2"
     inkscape:window-width="1920"
     inkscape:window-height="1163"
     id="namedview5403"
     showgrid="false"
     inkscape:zoom="1.6586367"
     inkscape:cx="235.73577"
     inkscape:cy="230.30963"
     inkscape:window-x="0"
     inkscape:window-y="0"
     inkscape:window-maximized="1"
     inkscape:current-layer="layer8"
     showguides="true"
     inkscape:guide-bbox="true"
     fit-margin-top="0"
     fit-margin-left="0"
     fit-margin-right="0"
     fit-margin-bottom="0"
     inkscape:pagecheckerboard="true"
     units="mm"
     inkscape:document-units="mm">
    <sodipodi:guide
       position="224.96473,487.0606"
       orientation="1,0"
       id="guide1083" />
    <sodipodi:guide
       position="67.826788,225.04115"
       orientation="0,-1"
       id="guide1085" />
  </sodipodi:namedview>
  <defs
     id="defs4">
    <inkscape:path-effect
       effect="mirror_symmetry"
       start_point="324.01829,113.38583"
       end_point="324.01829,336.61417"
       center_point="324.01829,225"
       id="path-effect140233"
       is_visible="true"
       lpeversion="1.1"
       mode="vertical"
       discard_orig_path="true"
       fuse_paths="false"
       oposite_fuse="false"
       split_items="false"
       split_open="false" />
    <linearGradient
       id="linearGradient5764">
      <stop
         id="stop5766"
         style="stop-color:#00005d;stop-opacity:1"
         offset="0" />
      <stop
         id="stop5768"
         style="stop-color:#000080;stop-opacity:1"
         offset="0.73193109" />
      <stop
         id="stop5770"
         style="stop-color:#0000c2;stop-opacity:1"
         offset="1" />
    </linearGradient>
  </defs>
  <metadata
     id="metadata7">
    <rdf:RDF>
      <cc:Work
         rdf:about="">
        <dc:format>image/svg+xml</dc:format>
        <dc:type
           rdf:resource="http://purl.org/dc/dcmitype/StillImage" />
      </cc:Work>
    </rdf:RDF>
  </metadata>
  <g
     inkscape:groupmode="layer"
     id="layer1"
     inkscape:label="Pic"
     style="display:none"
     sodipodi:insensitive="true">
    <image
       width="330.30002"
       height="230.39999"
       preserveAspectRatio="none"
       xlink:href="../../../Nextcloud/Product%20Images/KWF%20Windsor%20rocker/Katie%20Walker%20Windsor%20Rocker%202.jpg"
       id="image975"
       x="-262.60391"
       y="109.63329" />
  </g>
  <g
     inkscape:groupmode="layer"
     id="layer11"
     inkscape:label="Image"
     style="display:none"
     sodipodi:insensitive="true">
    <image
       width="423"
       height="423"
       preserveAspectRatio="none"
       xlink:href="../../../../../Documents/2024/2024-06-Jun/WindsorRockerRoundel.png"
       id="image28226"
       x="14.613758"
       y="10.87232" />
  </g>
  <g
     inkscape:groupmode="layer"
     id="layer10"
     inkscape:label="Background"
     style="display:inline"
     sodipodi:insensitive="true">
    <path
       inkscape:connector-curvature="0"
       style="fill:none;fill-opacity:1;stroke:#000000;stroke-width:2.8125;stroke-miterlimit:4;stroke-dasharray:none;stroke-opacity:1"
       id="path3867"
       d="m 15.145245,224.9355 a 210,210 0 1 1 0,0.129" />
  </g>
  <g
     inkscape:groupmode="layer"
     id="layer9"
     inkscape:label="Rings"
     style="display:none"
     sodipodi:insensitive="true">
    <path
       id="path28310"
       style="fill:none;stroke:#000000;stroke-width:0.920654"
       d="M 50.259094,274.13581 A 183.02869,180.9251 42.011742 0 0 276.20739,400.10723 183.02869,180.9251 42.011742 0 0 399.7409,175.86417 183.02869,180.9251 42.011742 0 0 173.79261,49.892768 183.02869,180.9251 42.011742 0 0 50.259094,274.13581 Z" />
    <ellipse
       style="fill:none;fill-opacity:1;stroke:#000000;stroke-width:1.08032;stroke-miterlimit:4;stroke-dasharray:none;stroke-opacity:1"
       id="path28480"
       cx="-257.43246"
       cy="-187.03847"
       transform="matrix(-0.98769221,-0.15641006,0.15645989,-0.98768431,0,0)"
       rx="146.50058"
       ry="146.50084" />
    <circle
       style="fill:none;fill-opacity:1;stroke:#000000;stroke-width:0.893842;stroke-miterlimit:4;stroke-dasharray:none;stroke-opacity:1"
       id="path28584"
       cx="225"
       cy="225"
       r="111.16725" />
    <circle
       style="display:inline;fill:none;stroke:#0000b5;stroke-width:0.7308;stroke-linecap:round;stroke-opacity:1"
       id="path1109"
       cx="225.00275"
       cy="224.67444"
       r="113.38583" />
  </g>
  <g
     inkscape:groupmode="layer"
     id="layer12"
     inkscape:label="Lines"
     style="display:none"
     sodipodi:insensitive="true">
    <rect
       style="fill:none;fill-opacity:1;stroke:#000000;stroke-width:3.24844;stroke-miterlimit:4;stroke-dasharray:none;stroke-opacity:1"
       id="rect28689"
       width="105.37389"
       height="10.086399"
       x="160.50922"
       y="192.149"
       transform="rotate(5)" />
    <path
       style="fill:none;stroke:#000000;stroke-width:3.24844;stroke-linecap:butt;stroke-linejoin:miter;stroke-miterlimit:4;stroke-dasharray:none;stroke-opacity:1"
       d="m 129.23909,122.42793 22.31482,83.64263"
       id="path29083" />
    <path
       style="fill:none;stroke:#000000;stroke-width:3.24844;stroke-linecap:butt;stroke-linejoin:miter;stroke-miterlimit:4;stroke-dasharray:none;stroke-opacity:1"
       d="m 157.33069,101.13768 15.48867,106.43206"
       id="path29085" />
    <path
       style="fill:none;stroke:#000000;stroke-width:3.24844;stroke-linecap:butt;stroke-linejoin:miter;stroke-miterlimit:4;stroke-dasharray:none;stroke-opacity:1"
       d="m 190.83976,88.052926 2.66967,121.835494"
       id="path29087" />
    <path
       style="fill:none;stroke:#000000;stroke-width:3.24844;stroke-linecap:butt;stroke-linejoin:miter;stroke-miterlimit:4;stroke-dasharray:none;stroke-opacity:1"
       d="M 263.69081,88.9682 227.92728,212.30198"
       id="path29089" />
    <path
       style="fill:none;stroke:#000000;stroke-width:3.24844;stroke-linecap:butt;stroke-linejoin:miter;stroke-miterlimit:4;stroke-dasharray:none;stroke-opacity:1"
       d="M 299.26377,105.89351 243.15551,214.62627"
       id="path29091" />
    <path
       style="fill:none;stroke:#000000;stroke-width:3.24844;stroke-linecap:butt;stroke-linejoin:miter;stroke-miterlimit:4;stroke-dasharray:none;stroke-opacity:1"
       d="m 106.26992,282.31447 47.66692,-65.80081"
       id="path29093" />
    <path
       style="fill:none;stroke:#000000;stroke-width:3.24844;stroke-linecap:butt;stroke-linejoin:miter;stroke-miterlimit:4;stroke-dasharray:none;stroke-opacity:1"
       d="M 144.78426,326.21652 172.9241,217.04987"
       id="path29095" />
    <path
       style="fill:none;stroke:#000000;stroke-width:3.24844;stroke-linecap:butt;stroke-linejoin:miter;stroke-miterlimit:4;stroke-dasharray:none;stroke-opacity:1"
       d="m 196.19056,349.17767 -1.5965,-130.00862"
       id="path29097" />
    <path
       style="fill:none;stroke:#000000;stroke-width:3.24844;stroke-linecap:butt;stroke-linejoin:miter;stroke-miterlimit:4;stroke-dasharray:none;stroke-opacity:1"
       d="M 250.91369,349.42779 212.20913,221.11525 v 0"
       id="path29099" />
    <path
       style="fill:none;stroke:#000000;stroke-width:3.24844;stroke-linecap:butt;stroke-linejoin:miter;stroke-miterlimit:4;stroke-dasharray:none;stroke-opacity:1"
       d="M 310.62152,321.21692 231.56908,222.57737"
       id="path29101" />
    <path
       style="fill:none;stroke:#000000;stroke-width:3.24844;stroke-linecap:butt;stroke-linejoin:miter;stroke-miterlimit:4;stroke-dasharray:none;stroke-opacity:1"
       d="M 226.87983,82.917965 212.69123,211.08602"
       id="path29103" />
  </g>
  <g
     inkscape:groupmode="layer"
     id="layer13"
     inkscape:label="Lines 2"
     style="display:inline">
    <g
       id="g1534"
       transform="matrix(-1,0,0,1,449.75347,-0.19325074)"
       style="display:inline">
      <path
         style="fill:none;stroke:#000000;stroke-width:3.24844;stroke-linecap:round;stroke-linejoin:miter;stroke-miterlimit:4;stroke-dasharray:none;stroke-opacity:1"
         d="m 133.60628,161.69507 37.23542,57.12356"
         id="path29083-6"
         sodipodi:nodetypes="cc" />
      <path
         style="fill:none;stroke:#000000;stroke-width:3.24844;stroke-linecap:round;stroke-linejoin:miter;stroke-miterlimit:4;stroke-dasharray:none;stroke-opacity:1"
         d="m 168.19583,129.34097 23.07159,92.93475"
         id="path29085-4"
         sodipodi:nodetypes="cc" />
      <path
         style="fill:none;stroke:#000000;stroke-width:3.24844;stroke-linecap:round;stroke-linejoin:miter;stroke-miterlimit:4;stroke-dasharray:none;stroke-opacity:1"
         d="M 258.23012,119.0519 237.21925,229.72204"
         id="path29089-5"
         sodipodi:nodetypes="cc" />
      <path
         style="fill:none;stroke:#000000;stroke-width:3.24844;stroke-linecap:round;stroke-linejoin:miter;stroke-miterlimit:4;stroke-dasharray:none;stroke-opacity:1"
         d="m 296.81678,140.31641 -34.34229,93.38312"
         id="path29091-0"
         sodipodi:nodetypes="cc" />
      <path
         style="fill:none;stroke:#000000;stroke-width:3.24844;stroke-linecap:round;stroke-linejoin:miter;stroke-miterlimit:4;stroke-dasharray:none;stroke-opacity:1"
         d="m 131.32527,285.7362 37.93887,-55.04445"
         id="path29093-4"
         sodipodi:nodetypes="cc" />
      <path
         style="fill:none;stroke:#000000;stroke-width:3.24844;stroke-linecap:round;stroke-linejoin:miter;stroke-miterlimit:4;stroke-dasharray:none;stroke-opacity:1"
         d="m 178.36834,326.37632 16.24964,-91.39951"
         id="path29097-7"
         sodipodi:nodetypes="cc" />
      <path
         style="fill:none;stroke:#000000;stroke-width:3.24844;stroke-linecap:round;stroke-linejoin:miter;stroke-miterlimit:4;stroke-dasharray:none;stroke-opacity:1"
         d="m 244.13204,334.5945 -24.5957,-95.48821"
         id="path29099-1"
         sodipodi:nodetypes="cc" />
      <path
         style="fill:none;stroke:#000000;stroke-width:3.24844;stroke-linecap:round;stroke-linejoin:miter;stroke-miterlimit:4;stroke-dasharray:none;stroke-opacity:1"
         d="m 298.91379,307.47726 -55.79987,-64.6978"
         id="path29101-7"
         sodipodi:nodetypes="cc" />
      <path
         style="fill:none;stroke:#000000;stroke-width:3.24844;stroke-linecap:round;stroke-linejoin:miter;stroke-miterlimit:4;stroke-dasharray:none;stroke-opacity:1"
         d="M 214.96782,115.21143 214.5454,226.14821"
         id="path29103-2"
         sodipodi:nodetypes="cc" />
      <path
         style="fill:none;stroke:#000000;stroke-width:2.8125;stroke-linecap:round;stroke-linejoin:miter;stroke-miterlimit:4;stroke-dasharray:none;stroke-opacity:1"
         d="m 163.25923,223.84217 101.06308,16.56765"
         id="path72748"
         sodipodi:nodetypes="cc" />
      <path
         id="path100106"
         style="fill:none;stroke:#000000;stroke-width:2.8125;stroke-linecap:round;stroke-opacity:1"
         d="M 324.01829,275.1535 C 302.2042,319.79094 255.8214,336.61417 225,336.61417 163.3572,336.61417 113.38583,286.6428 113.38583,225 c 0,-61.6428 49.97137,-111.61417 111.61417,-111.61417 30.8214,0 61.171,15.55934 75.24187,29.35153"
         sodipodi:nodetypes="csssc" />
      <path
         style="fill:none;stroke:none;stroke-width:0.9375px;stroke-linecap:butt;stroke-linejoin:miter;stroke-opacity:1"
         d="m 163.10567,229.72412 99.54865,16.25436"
         id="path102093" />
      <path
         style="fill:none;stroke:none;stroke-width:0.9375px;stroke-linecap:butt;stroke-linejoin:miter;stroke-opacity:1"
         d="m 165.00708,218.01522 101.26063,16.40037"
         id="path102095" />
    </g>
  </g>
  <g
     inkscape:groupmode="layer"
     id="layer7"
     inkscape:label="Old Text"
     style="display:none"
     sodipodi:insensitive="true">
    <text
       xml:space="preserve"
       style="font-style:normal;font-variant:normal;font-weight:normal;font-stretch:normal;line-height:0%;font-family:Verdana;-inkscape-font-specification:Verdana;letter-spacing:0px;word-spacing:0px;fill:#000000;fill-opacity:1;stroke:none"
       x="-100.35488"
       y="179.56532"
       id="text7823"
       transform="rotate(-58.859402)"><tspan
         sodipodi:role="line"
         x="-100.35488"
         y="179.56532"
         id="tspan7825"
         style="font-style:normal;font-variant:normal;font-weight:normal;font-stretch:normal;font-size:68px;line-height:125%;font-family:'Frutiger 45 Light';-inkscape-font-specification:'Frutiger 45 Light,';text-align:start;writing-mode:lr-tb;text-anchor:start;fill:#000000;fill-opacity:1"><tspan
           x="-100.35488"
           y="179.56532"
           style="font-style:normal;font-variant:normal;font-weight:normal;font-stretch:normal;font-size:68px;line-height:125%;font-family:'Frutiger 45 Light';-inkscape-font-specification:'Frutiger 45 Light,';text-align:start;letter-spacing:26.5px;writing-mode:lr-tb;text-anchor:start;fill:#000000;fill-opacity:1"
           id="tspan7827">K</tspan></tspan></text>
    <text
       xml:space="preserve"
       style="font-style:normal;font-variant:normal;font-weight:normal;font-stretch:normal;line-height:0%;font-family:Verdana;-inkscape-font-specification:Verdana;letter-spacing:0px;word-spacing:0px;fill:#000000;fill-opacity:1;stroke:none"
       x="55.183456"
       y="181.35152"
       id="text7829"
       transform="matrix(0.848097,-0.52984,0.52984,0.848097,0,0)"><tspan
         sodipodi:role="line"
         x="55.183456"
         y="181.35152"
         id="tspan7831"
         style="font-size:14px;line-height:1.25"><tspan
           x="55.183456"
           y="181.35152"
           style="font-size:68px;font-family:'Frutiger 45 Light';-inkscape-font-specification:'Frutiger 45 Light';letter-spacing:26.5px;fill:#000000;fill-opacity:1"
           id="tspan7833">A</tspan></tspan></text>
    <text
       xml:space="preserve"
       style="font-style:normal;font-variant:normal;font-weight:normal;font-stretch:normal;line-height:0%;font-family:Verdana;-inkscape-font-specification:Verdana;letter-spacing:0px;word-spacing:0px;fill:#000000;fill-opacity:1;stroke:none"
       x="208.27231"
       y="95.974106"
       id="text7835"
       transform="rotate(0.28894384)"><tspan
         sodipodi:role="line"
         x="208.27231"
         y="95.974106"
         id="tspan7837"
         style="font-size:14px;line-height:1.25"><tspan
           x="208.27231"
           y="95.974106"
           style="font-size:68px;font-family:'Frutiger 45 Light';-inkscape-font-specification:'Frutiger 45 Light';letter-spacing:26.5px;fill:#000000;fill-opacity:1"
           id="tspan7839">T</tspan></tspan></text>
    <text
       xml:space="preserve"
       style="font-style:normal;font-variant:normal;font-weight:normal;font-stretch:normal;line-height:0%;font-family:Verdana;-inkscape-font-specification:Verdana;letter-spacing:0px;word-spacing:0px;fill:#000000;fill-opacity:1;stroke:none"
       x="301.56628"
       y="-43.875751"
       id="text7841"
       transform="rotate(29.285054)"><tspan
         sodipodi:role="line"
         x="301.56628"
         y="-43.875751"
         id="tspan7843"
         style="font-size:14px;line-height:1.25"><tspan
           x="301.56628"
           y="-43.875751"
           style="font-size:68px;font-family:'Frutiger 45 Light';-inkscape-font-specification:'Frutiger 45 Light';letter-spacing:26.5px;fill:#000000;fill-opacity:1"
           id="tspan7845">I</tspan></tspan></text>
    <text
       xml:space="preserve"
       style="font-style:normal;font-variant:normal;font-weight:normal;font-stretch:normal;line-height:0%;font-family:Verdana;-inkscape-font-specification:Verdana;letter-spacing:0px;word-spacing:0px;fill:#000000;fill-opacity:1;stroke:none"
       x="295.41077"
       y="-202.16417"
       id="text7847"
       transform="rotate(58.673037)"><tspan
         sodipodi:role="line"
         x="295.41077"
         y="-202.16417"
         id="tspan7849"
         style="font-size:14px;line-height:1.25"><tspan
           x="295.41077"
           y="-202.16417"
           style="font-size:68px;font-family:'Frutiger 45 Light';-inkscape-font-specification:'Frutiger 45 Light';letter-spacing:26.5px;fill:#000000;fill-opacity:1"
           id="tspan7851">E</tspan></tspan></text>
    <text
       xml:space="preserve"
       style="font-style:normal;font-variant:normal;font-weight:normal;font-stretch:normal;line-height:0%;font-family:Verdana;-inkscape-font-specification:Verdana;letter-spacing:0px;word-spacing:0px;fill:#000000;fill-opacity:1;stroke:none"
       x="62.735092"
       y="-436.44995"
       id="text7853"
       transform="rotate(119.78184)"><tspan
         sodipodi:role="line"
         x="62.735092"
         y="-436.44995"
         id="tspan7855"
         style="font-size:14px;line-height:1.25"><tspan
           x="62.735092"
           y="-436.44995"
           style="font-size:68px;font-family:'Frutiger 45 Light';-inkscape-font-specification:'Frutiger 45 Light';letter-spacing:26.5px;fill:#000000;fill-opacity:1"
           id="tspan7857">A</tspan></tspan></text>
    <text
       xml:space="preserve"
       style="font-style:normal;font-variant:normal;font-weight:normal;font-stretch:normal;line-height:0%;font-family:Verdana;-inkscape-font-specification:Verdana;letter-spacing:0px;word-spacing:0px;fill:#000000;fill-opacity:1;stroke:none"
       x="178.71021"
       y="-364.55035"
       id="text7859"
       transform="rotate(92.540869)"><tspan
         sodipodi:role="line"
         x="178.71021"
         y="-364.55035"
         id="tspan7861"
         style="font-size:14px;line-height:1.25"><tspan
           x="178.71021"
           y="-364.55035"
           style="font-size:68px;font-family:'Frutiger 45 Light';-inkscape-font-specification:'Frutiger 45 Light';letter-spacing:26.5px;fill:#000000;fill-opacity:1"
           id="tspan7863">W</tspan></tspan></text>
    <text
       xml:space="preserve"
       style="font-style:normal;font-variant:normal;font-weight:normal;font-stretch:normal;line-height:0%;font-family:Verdana;-inkscape-font-specification:Verdana;letter-spacing:0px;word-spacing:0px;fill:#000000;fill-opacity:1;stroke:none"
       x="-109.02761"
       y="-436.95874"
       id="text7865"
       transform="rotate(151.48837)"><tspan
         sodipodi:role="line"
         x="-109.02761"
         y="-436.95874"
         id="tspan7867"
         style="font-size:14px;line-height:1.25"><tspan
           x="-109.02761"
           y="-436.95874"
           style="font-size:68px;font-family:'Frutiger 45 Light';-inkscape-font-specification:'Frutiger 45 Light';letter-spacing:26.5px;fill:#000000;fill-opacity:1"
           id="tspan7869">L</tspan></tspan></text>
    <text
       xml:space="preserve"
       style="font-style:normal;font-variant:normal;font-weight:normal;font-stretch:normal;line-height:0%;font-family:Verdana;-inkscape-font-specification:Verdana;letter-spacing:0px;word-spacing:0px;fill:#000000;fill-opacity:1;stroke:none"
       x="-255.75696"
       y="-349.18524"
       id="text7871"
       transform="rotate(-178.49587)"><tspan
         sodipodi:role="line"
         x="-255.75696"
         y="-349.18524"
         id="tspan7873"
         style="font-size:14px;line-height:1.25"><tspan
           x="-255.75696"
           y="-349.18524"
           style="font-size:68px;font-family:'Frutiger 45 Light';-inkscape-font-specification:'Frutiger 45 Light';letter-spacing:26.5px;fill:#000000;fill-opacity:1"
           id="tspan7875">K</tspan></tspan></text>
    <text
       xml:space="preserve"
       style="font-style:normal;font-variant:normal;font-weight:normal;font-stretch:normal;line-height:0%;font-family:Verdana;-inkscape-font-specification:Verdana;letter-spacing:0px;word-spacing:0px;fill:#000000;fill-opacity:1;stroke:none"
       x="-314.17673"
       y="-226.43526"
       id="text7877"
       transform="matrix(-0.886085,-0.463524,0.463524,-0.886085,0,0)"><tspan
         sodipodi:role="line"
         x="-314.17673"
         y="-226.43526"
         id="tspan7879"
         style="font-size:14px;line-height:1.25"><tspan
           x="-314.17673"
           y="-226.43526"
           style="font-size:68px;font-family:'Frutiger 45 Light';-inkscape-font-specification:'Frutiger 45 Light';letter-spacing:26.5px;fill:#000000;fill-opacity:1"
           id="tspan7881">E</tspan></tspan></text>
    <text
       xml:space="preserve"
       style="font-style:normal;font-variant:normal;font-weight:normal;font-stretch:normal;line-height:0%;font-family:Verdana;-inkscape-font-specification:Verdana;letter-spacing:0px;word-spacing:0px;fill:#000000;fill-opacity:1;stroke:none"
       x="-323.76883"
       y="-58.256512"
       id="text7883"
       transform="rotate(-122.29508)"><tspan
         sodipodi:role="line"
         x="-323.76883"
         y="-58.256512"
         id="tspan7885"
         style="font-size:14px;line-height:1.25"><tspan
           x="-323.76883"
           y="-58.256512"
           style="font-size:68px;font-family:'Frutiger 45 Light';-inkscape-font-specification:'Frutiger 45 Light';letter-spacing:26.5px;fill:#000000;fill-opacity:1"
           id="tspan7887">R</tspan></tspan></text>
    <text
       xml:space="preserve"
       style="font-style:normal;font-variant:normal;font-weight:normal;font-stretch:normal;line-height:0%;font-family:Verdana;-inkscape-font-specification:Verdana;letter-spacing:5px;word-spacing:0px;fill:#000000;fill-opacity:1;stroke:none"
       x="87.530083"
       y="244.51703"
       id="text7889"><tspan
         sodipodi:role="line"
         x="87.530083"
         y="244.51703"
         id="tspan7891"
         style="font-size:14px;line-height:1.25;letter-spacing:8.5px;fill:#000000;fill-opacity:1"><tspan
           x="87.530083"
           y="244.51703"
           style="font-style:italic;font-size:48px;font-family:'Frutiger 45 Light';-inkscape-font-specification:'Frutiger 45 Light, Italic';text-align:start;letter-spacing:8.5px;writing-mode:lr-tb;text-anchor:start;fill:#000000;fill-opacity:1"
           id="tspan7893">urniture</tspan></tspan></text>
    <text
       xml:space="preserve"
       style="font-style:normal;font-variant:normal;font-weight:normal;font-stretch:normal;line-height:0%;font-family:Verdana;-inkscape-font-specification:Verdana;letter-spacing:0px;word-spacing:0px;fill:#000000;fill-opacity:1;stroke:none"
       x="53.467579"
       y="256.55212"
       id="text7895"><tspan
         sodipodi:role="line"
         x="53.467579"
         y="256.55212"
         id="tspan7897"
         style="font-size:14px;line-height:1.25"><tspan
           x="53.467579"
           y="256.55212"
           style="font-style:italic;font-size:72px;line-height:125%;font-family:'Frutiger 45 Light';-inkscape-font-specification:'Frutiger 45 Light, Italic';text-align:start;writing-mode:lr-tb;text-anchor:start;fill:#000000;fill-opacity:1"
           id="tspan7899">f</tspan></tspan></text>
  </g>
  <g
     inkscape:groupmode="layer"
     id="layer8"
     inkscape:label="New Text"
     style="display:inline">
    <g
       aria-label="WINDSOR"
       id="text30767"
       style="font-weight:bold;font-size:50px;line-height:1.25;font-family:'Frutiger 45 Light';-inkscape-font-specification:'Frutiger 45 Light, Bold';letter-spacing:30px;word-spacing:0px;display:inline;stroke:#000000;stroke-width:1.10985">
      <path
         d="m 81.663701,191.43521 2.156096,-6.35824 -26.423956,-17.02944 0.03136,-0.0925 31.316335,2.602 2.069852,-6.10391 -29.58215,-21.40018 -1.701356,5.01724 25.618563,17.50393 -0.03136,0.0925 -30.730473,-2.42911 -2.273701,6.70505 25.900816,16.67158 -0.03136,0.0925 -30.981364,-1.68925 -1.764079,5.2022 z"
         style="font-weight:normal;font-family:'Frutiger 55 Roman';-inkscape-font-specification:'Frutiger 55 Roman, Normal'"
         id="path937" />
      <path
         d="m 116.13499,126.91274 3.41648,-3.65738 -25.494665,-23.815404 -3.416485,3.657384 z"
         style="font-weight:normal;font-family:'Frutiger 55 Roman';-inkscape-font-specification:'Frutiger 55 Roman, Normal'"
         id="path939" />
      <path
         d="m 149.6175,98.642321 4.51586,-2.157754 -12.36762,-25.883562 0.0881,-0.0421 26.62009,19.073479 5.77148,-2.757715 -15.04112,-31.478816 -4.49383,2.147228 12.10448,25.332848 -0.11015,0.05263 -25.98246,-18.701701 -6.14597,2.93665 z"
         style="font-weight:normal;font-family:'Frutiger 55 Roman';-inkscape-font-specification:'Frutiger 55 Roman, Normal'"
         id="path941" />
      <path
         d="m 212.00954,78.382926 10.30246,0.07409 q 18.23719,0.08232 18.73067,-17.614785 -0.039,-8.154789 -5.32884,-12.685133 -5.16811,-4.480639 -13.15095,-4.586875 l -10.30246,-0.07409 z m 5.22403,-30.456385 5.83481,0.04196 q 5.56591,0.08885 9.0818,3.458952 3.58914,3.370623 3.59337,9.571986 -0.21739,13.255615 -13.44877,13.062806 l -5.24889,-0.03775 z"
         style="font-weight:normal;font-family:'Frutiger 55 Roman';-inkscape-font-specification:'Frutiger 55 Roman, Normal'"
         id="path943" />
      <path
         d="m 303.86002,67.260265 2.52361,-3.927347 q -2.97288,-2.686583 -6.29607,-4.166186 -4.43835,-1.976114 -8.24403,-1.051528 -3.90483,0.907167 -5.85604,5.169541 -0.81428,1.82887 -0.7335,3.388135 -0.0135,1.65092 0.49869,3.081568 1.1533,2.811804 3.27865,5.121038 1.07008,1.198002 2.03858,2.32405 0.95856,1.148351 1.58991,2.31136 0.68588,1.160565 0.81646,2.367863 0.13059,1.207297 -0.48509,2.590102 -0.60574,1.360501 -1.63493,2.051427 -1.00444,0.755393 -2.29607,0.955329 -2.52871,0.397428 -4.64997,-0.60048 -1.78426,-0.794417 -3.3302,-2.124114 -1.60047,-1.327254 -2.60869,-2.364089 l -2.33281,4.039023 q 2.5986,2.626842 5.91675,4.237822 4.95133,2.204509 9.27748,1.431479 4.33852,-0.740797 6.61742,-5.739179 1.68325,-3.900635 0.55242,-6.942959 -1.09372,-2.945623 -3.29086,-5.393722 -0.91885,-1.237564 -1.84274,-2.343752 -0.97842,-1.103744 -1.67423,-2.242006 -0.66114,-1.096099 -0.89591,-2.189437 -0.27938,-1.113198 0.2072,-2.20606 0.57596,-1.293591 1.50096,-1.870558 0.84816,-0.584454 1.88191,-0.685405 1.04369,-0.123254 2.0921,0.103015 1.03849,0.248573 1.99753,0.675573 1.73966,0.774557 2.88185,1.630522 1.17932,0.952666 2.49962,2.368975 z"
         style="font-weight:normal;font-family:'Frutiger 55 Roman';-inkscape-font-specification:'Frutiger 55 Roman, Normal'"
         id="path945" />
      <path
         d="m 339.70713,107.26979 q 4.13709,-3.68757 9.04289,-4.20115 4.8531,-0.49932 8.79622,3.70432 3.74067,4.41681 2.68884,9.1808 -1.08827,4.79648 -5.22536,8.48405 -3.99129,3.55761 -8.81982,4.23126 -4.93393,0.70218 -9.01929,-3.73443 -3.89083,-4.5119 -2.62823,-9.33295 1.17346,-4.77429 5.16475,-8.3319 z m -3.52512,-3.95484 q -6.05072,5.39327 -6.72096,11.94295 -0.82634,6.558 4.41082,12.61705 5.43566,5.91482 12.09389,5.89962 6.48587,-0.0251 12.56908,-5.38192 5.89066,-5.31601 6.71898,-11.90848 0.81208,-6.61069 -4.42707,-12.63527 -5.40119,-5.912843 -12.0289,-5.826724 -6.69269,0.01322 -12.61584,5.292774 z"
         style="font-weight:normal;font-family:'Frutiger 55 Roman';-inkscape-font-specification:'Frutiger 55 Roman, Normal'"
         id="path947" />
      <path
         d="m 362.3996,172.88089 1.41868,4.7996 14.86707,-4.39442 0.8512,2.87977 q 0.6143,1.906 0.56391,3.37201 -0.13446,1.43995 -2.16431,3.18555 l -10.09715,8.55988 1.61936,5.47858 11.44642,-10.28253 q 1.32379,-1.20595 1.89572,-2.11329 0.45486,-0.87274 0.51378,-2.13761 l 0.0937,-0.0277 q 1.40781,2.868 4.0356,4.17885 2.53413,1.33853 5.61504,0.47879 3.02024,-0.89272 4.53502,-2.48608 1.50093,-1.64019 1.87424,-3.73627 0.37331,-2.09609 0.009,-4.53425 -0.44407,-2.36365 -1.19838,-4.91563 l -2.42213,-8.19445 z m 30.66116,-3.84391 1.35638,4.58889 q 1.87865,6.70031 -2.95394,8.17964 -5.15506,1.42191 -7.35942,-5.69129 l -1.20414,-4.07381 z"
         style="font-weight:normal;font-family:'Frutiger 55 Roman';-inkscape-font-specification:'Frutiger 55 Roman, Normal'"
         id="path949" />
    </g>
    <g
       aria-label="ROCKER"
       id="text36711"
       style="font-size:50px;line-height:1.25;letter-spacing:56.25px;word-spacing:0px;display:inline;stroke:#000000;stroke-width:1.14045">
      <path
         d="m 51.153175,278.21994 1.794433,4.67214 14.472228,-5.55837 1.07666,2.80329 q 0.763355,1.85134 0.829268,3.31674 -0.01997,1.44607 -1.905157,3.347 l -9.387312,9.33286 2.048281,5.33307 10.595874,-11.15698 q 1.224093,-1.30703 1.722347,-2.25683 0.384298,-0.90603 0.34283,-2.17159 l 0.09116,-0.035 q 1.63058,2.74745 4.353954,3.84601 2.63221,1.13358 5.635326,0.0325 2.940027,-1.12918 4.323818,-2.83753 1.366284,-1.75393 1.57237,-3.873 0.206085,-2.11907 -0.350176,-4.52071 -0.629917,-2.32104 -1.584031,-4.80525 l -3.063667,-7.97682 z m 30.26028,-6.26077 1.715653,4.46701 q 2.403537,6.53043 -2.296675,8.38795 -5.026222,1.82582 -7.787153,-5.0904 l -1.52308,-3.96562 z"
         style="font-family:'Frutiger 55 Roman';-inkscape-font-specification:'Frutiger 55 Roman, Normal'"
         id="path989" />
      <path
         d="m 109.68511,341.46853 q 3.61214,-4.20311 8.40666,-5.36204 4.74419,-1.13781 9.20942,2.50644 4.29279,3.88236 3.88133,8.7437 -0.44329,4.89837 -4.05543,9.10148 -3.48484,4.05499 -8.18158,5.36234 -4.79742,1.34959 -9.4345,-2.50674 -4.45423,-3.95671 -3.8414,-8.90253 0.53066,-4.88766 4.0155,-8.94265 z m -4.01795,-3.45301 q -5.28295,6.14728 -5.07965,12.72802 0.0497,6.60967 6.04334,11.92155 6.17129,5.14264 12.76882,4.24555 6.42539,-0.88406 11.74537,-6.99951 5.13453,-6.0495 5.08225,-12.6936 -0.0708,-6.66001 -6.06185,-11.93746 -6.13687,-5.14524 -12.69476,-4.1819 -6.63196,0.89968 -11.80352,6.91735 z"
         style="font-family:'Frutiger 55 Roman';-inkscape-font-specification:'Frutiger 55 Roman, Normal'"
         id="path991" />
      <path
         d="m 206.79871,376.99441 1.45959,-4.65251 q -3.33632,-2.31743 -7.35072,-3.15996 -7.92286,-1.71151 -13.92379,1.88128 -6.12539,3.59013 -7.95343,11.58712 -1.7751,8.20885 2.07987,14.04298 3.77287,5.8659 11.91286,7.72573 1.62059,0.36031 3.7761,0.56445 2.13961,0.27563 4.26871,-0.0763 l 0.73933,-4.78765 v 0 q -1.46973,0.42354 -3.61997,0.42066 -2.25086,-2.5e-4 -4.15743,-0.42415 -5.3993,-1.25047 -8.21107,-5.7022 -2.95743,-4.35905 -1.64862,-10.47067 1.35645,-5.87594 5.72344,-8.75657 4.35376,-2.9336 10.29855,-1.66188 3.76548,0.8372 6.60658,3.4697 z"
         style="font-family:'Frutiger 55 Roman';-inkscape-font-specification:'Frutiger 55 Roman, Normal'"
         id="path993" />
      <path
         d="m 263.25935,403.64518 4.82845,-1.31716 -4.49763,-16.4874 v 0 l 19.50115,12.39455 7.04248,-1.92113 -21.92082,-13.10101 11.49089,-20.21629 -6.40653,1.74765 -10.35612,18.71734 v 0 l -4.03501,-14.79155 -4.82845,1.31717 z"
         style="font-family:'Frutiger 55 Roman';-inkscape-font-specification:'Frutiger 55 Roman, Normal'"
         id="path995" />
      <path
         d="m 343.24533,365.0246 14.30388,-13.33503 -2.99663,-3.21435 -10.64309,9.92219 -7.8412,-8.4109 9.69665,-9.03985 -2.99664,-3.21435 -9.69664,9.03984 -6.95885,-7.46445 10.64309,-9.92219 -2.99663,-3.21435 -14.30389,13.33502 z"
         style="font-family:'Frutiger 55 Roman';-inkscape-font-specification:'Frutiger 55 Roman, Normal'"
         id="path997" />
      <path
         d="m 392.76013,298.52507 1.69301,-4.70984 -14.589,-5.24421 1.01581,-2.8259 q 0.63125,-1.90045 1.53851,-3.0531 0.95967,-1.08193 3.62879,-1.28994 l 13.20414,-0.93521 1.93251,-5.37611 -15.31075,1.52703 q -1.78061,0.19013 -2.77828,0.58386 -0.88279,0.43503 -1.67803,1.4204 l -0.0919,-0.033 q 0.55991,-3.14544 -0.78467,-5.75613 -1.25268,-2.57766 -4.24586,-3.70549 -2.96375,-1.06536 -5.12742,-0.67566 -2.18019,0.43565 -3.72038,1.9056 -1.54019,1.46995 -2.6877,3.65181 -1.03909,2.16894 -1.93928,4.6732 l -2.8905,8.04118 z m -27.00253,-15.02483 1.61869,-4.50306 q 2.4456,-6.51479 7.2179,-4.85121 4.99845,1.90053 2.57148,8.94089 l -1.437,3.99761 z"
         style="font-family:'Frutiger 55 Roman';-inkscape-font-specification:'Frutiger 55 Roman, Normal'"
         id="path999" />
    </g>
    <text
       xml:space="preserve"
       style="font-style:normal;font-weight:normal;font-size:37.5px;line-height:1.25;font-family:sans-serif;letter-spacing:0px;word-spacing:0px;fill:none;fill-opacity:1;stroke:none;stroke-width:0.9375"
       x="329.19235"
       y="442.42764"
       id="text121804"><tspan
         sodipodi:role="line"
         style="font-style:normal;font-variant:normal;font-weight:normal;font-stretch:normal;font-size:12.5px;font-family:sans-serif;-inkscape-font-specification:'sans-serif, Normal';font-variant-ligatures:normal;font-variant-caps:normal;font-variant-numeric:normal;font-variant-east-asian:normal;fill:none;stroke-width:0.9375"
         x="329.19235"
         y="442.42764"
         id="tspan152491">Frutiger Roman</tspan></text>
    <path
       style="display:inline;fill:none;stroke:none;stroke-width:0.9375px;stroke-linecap:butt;stroke-linejoin:miter;stroke-opacity:1"
       d="M -16.893796,192.63094 466.8938,193.61907"
       id="path103474" />
  </g>
</svg>
